<svg width="24" height="24" viewBox="0 0 24 24" fill="none" xmlns="http://www.w3.org/2000/svg">
<rect width="24" height="24" fill="#C4C4C4"/>
<path d="M11.9218 22L16.4901 12.1241L16.0666 11.6888L13.6739 14.1483L10.0847 10.4591L10.378 10.1576C9.77355 9.68077 9.38391 8.93063 9.38391 8.08696C9.38391 7.19839 9.81612 6.41358 10.4762 5.94253L10.0847 5.54006L13.3543 2.17928C12.8956 2.06216 12.4158 2 11.9218 2C8.6513 2 6 4.72522 6 8.08696C6 9.4429 6.43134 10.6953 7.16067 11.7071L11.9218 22Z" fill="#262236"/>
<path d="M16.0666 4.31031L14.3285 2.52366C15.0992 2.87643 15.783 3.39345 16.3379 4.03144L16.0666 4.31031Z" fill="#262236"/>
<path d="M20 10.4557L17.2269 7.80677L19.7668 4.99745L18.4963 3.7839L15.9564 6.59322L13.1833 3.94429L12.1374 5.10107L14.9106 7.75L12.1615 10.7907L13.432 12.0042L16.181 8.96355L18.9542 11.6125L20 10.4557Z" fill="#262236"/>
</svg>
