<svg width="24" height="24" viewBox="0 0 24 24" fill="none" xmlns="http://www.w3.org/2000/svg">
<path d="M12 16C14.2092 16 16 14.2091 16 12C16 9.79086 14.2092 8 12 8C9.79083 8 8 9.79086 8 12C8 14.2091 9.79083 16 12 16Z" fill="black"/>
<path fill-rule="evenodd" clip-rule="evenodd" d="M9 0H15V2.45779C15.5821 2.64062 16.1413 2.87527 16.6721 3.15628L18.8284 1L23.071 5.24265L20.8925 7.42117C21.1519 7.9241 21.37 8.45187 21.5422 9H24V15H21.5422C21.3647 15.5652 21.1384 16.1087 20.8682 16.6256L23.071 18.8285L18.8284 23.0711L16.6255 20.8682C16.1086 21.1384 15.5651 21.3647 15 21.5422V24H9V21.5422C8.45184 21.3701 7.92407 21.1519 7.42114 20.8925L5.24255 23.0711L0.999939 18.8284L3.15625 16.6721C2.87524 16.1413 2.64056 15.5821 2.45776 15H0V9H2.45782C2.63531 8.43488 2.86157 7.89139 3.13177 7.37445L1 5.24268L5.24261 1.00003L7.37439 3.13181C7.89136 2.8616 8.43488 2.63528 9 2.45779V0ZM18 12C18 15.3137 15.3137 18 12 18C8.68628 18 6 15.3137 6 12C6 8.68628 8.68628 6 12 6C15.3137 6 18 8.68628 18 12Z" fill="black"/>
</svg>
