<svg width="24" height="24" viewBox="0 0 24 24" fill="none" xmlns="http://www.w3.org/2000/svg">
<rect width="24" height="24" fill="#C4C4C4"/>
<path d="M13.9412 10.6957H10.4118V10.0314C9.87022 9.55373 9.52941 8.85957 9.52941 8.08696C9.52941 7.31435 9.87022 6.62019 10.4118 6.14252V5.47826H13.9412V2.25207C13.382 2.08807 12.7897 2 12.1765 2C8.7653 2 6 4.72522 6 8.08696C6 9.4429 6.44988 10.6953 7.21057 11.7071L12.1765 22L15.9522 14.1739H13.9412L13.9412 10.6957Z" fill="#262236"/>
<path d="M21 7.22559H17.4105V3.73913H15.766V7.22559H12.1765V8.6612H15.766V12.4348H17.4105V8.6612H21V7.22559Z" fill="#262236"/>
</svg>
