<svg width="24" height="24" viewBox="0 0 24 24" fill="none" xmlns="http://www.w3.org/2000/svg">
<rect width="24" height="24" fill="#C4C4C4"/>
<path fill-rule="evenodd" clip-rule="evenodd" d="M18 8.08696C18 9.4429 17.563 10.6953 16.824 11.7071L12 22L7.17599 11.7071C6.43703 10.6953 6 9.4429 6 8.08696C6 4.72522 8.68629 2 12 2C15.3137 2 18 4.72522 18 8.08696ZM12 10.6957C13.4202 10.6957 14.5714 9.5277 14.5714 8.08696C14.5714 6.64621 13.4202 5.47826 12 5.47826C10.5798 5.47826 9.42857 6.64621 9.42857 8.08696C9.42857 9.5277 10.5798 10.6957 12 10.6957Z" fill="#262236"/>
</svg>
