<svg width="24" height="24" viewBox="0 0 24 24" fill="none" xmlns="http://www.w3.org/2000/svg">
<rect width="24" height="24" fill="#C4C4C4"/>
<path d="M12.3649 2C14.5349 2 16.4513 3.0385 17.6002 4.62416L14.8058 9.25287C14.9894 8.902 15.0927 8.50602 15.0927 8.08696C15.0927 6.64621 13.8714 5.47826 12.3649 5.47826C10.8584 5.47826 9.63709 6.64621 9.63709 8.08696C9.63709 9.5277 10.8584 10.6957 12.3649 10.6957C13.3173 10.6957 14.1557 10.2289 14.6436 9.52145L12.6462 12.83L13.6962 18.0474L14.455 17.796L12.3649 22L7.24751 11.7071C6.46361 10.6953 6 9.4429 6 8.08696C6 4.72522 8.84966 2 12.3649 2Z" fill="#262236"/>
<path d="M23 6.11483L19.8502 4.3757L18.9409 5.88183L22.0907 7.62096L23 6.11483Z" fill="#262236"/>
<path d="M18.4863 6.6349L21.6361 8.37403L17.999 14.3986L14.8492 12.6594L18.4863 6.6349Z" fill="#262236"/>
<path d="M17.3334 15.0351L14.6056 13.529V16.5412L17.3334 15.0351Z" fill="#262236"/>
</svg>
