<svg width="24" height="24" viewBox="0 0 24 24" fill="none" xmlns="http://www.w3.org/2000/svg">
<path d="M18.9767 6.83895L14.5116 7.34471L14.407 5.9111L18.8721 5.40535L18.9767 6.83895Z" fill="black"/>
<path d="M18.9767 12.908L14.5116 13.4137L14.407 11.9801L18.8721 11.4744L18.9767 12.908Z" fill="black"/>
<path d="M18.9767 9.87346L14.5116 10.3792L14.407 8.94561L18.8721 8.43986L18.9767 9.87346Z" fill="black"/>
<path fill-rule="evenodd" clip-rule="evenodd" d="M2.0707 2V4.46177L0 4.31019V20.1216L12 21L24 20.1216V4.31019L21.9293 4.46177V2L12 2.97579L2.0707 2ZM3.5107 18.432V3.58586L11.1628 4.33786V19.184L3.5107 18.432ZM12.6028 19.2071V4.3609L20.4893 3.58586V18.432L12.6028 19.2071Z" fill="black"/>
</svg>
