<svg width="213" height="78" viewBox="0 0 213 78" fill="none" xmlns="http://www.w3.org/2000/svg">
<path d="M42.8532 75.0109L4.20033 50.8527L42.8532 26.6946L81.506 50.8527L42.8532 75.0109Z" fill="#114B5F" stroke="#114B5F" stroke-width="4"/>
<path d="M42.8532 63.0109L4.20033 38.8527L42.8532 14.6946L81.506 38.8527L42.8532 63.0109Z" fill="#2A9D8F" stroke="#2A9D8F" stroke-width="4"/>
<path d="M81.0792 27.4264L75.1008 31.163L72.4116 32.8437L75.087 34.5463L78.6319 36.8021L66.6517 36.8022L66.0781 36.8022L65.5917 37.1062L42.4264 51.5846L3.77358 27.4264L42.4264 3.26823L81.0792 27.4264Z" fill="#031014" stroke="#031014" stroke-width="4"/>
<path d="M20.3848 29.2046L45.8406 13.2946M26.0416 32.7401L51.4975 16.8301M31.6985 36.2757L57.1543 20.3657M37.3553 39.8112L50.7904 31.4143" stroke="white" stroke-width="3"/>
<path d="M129.098 42H123.824L113.559 25.1602V42H108.285V16.4062H113.559L123.842 33.2812V16.4062H129.098V42ZM148.469 36.7266H139.223L137.465 42H131.857L141.385 16.4062H146.271L155.852 42H150.244L148.469 36.7266ZM140.646 32.4551H147.045L143.828 22.875L140.646 32.4551ZM165.133 16.4062L171.707 34.9688L178.246 16.4062H185.172V42H179.881V35.0039L180.408 22.9277L173.5 42H169.879L162.988 22.9453L163.516 35.0039V42H158.242V16.4062H165.133ZM210.801 29.7832C210.801 32.3027 210.355 34.5117 209.465 36.4102C208.574 38.3086 207.297 39.7734 205.633 40.8047C203.98 41.8359 202.082 42.3516 199.938 42.3516C197.816 42.3516 195.924 41.8418 194.26 40.8223C192.596 39.8027 191.307 38.3496 190.393 36.4629C189.479 34.5645 189.016 32.3848 189.004 29.9238V28.6582C189.004 26.1387 189.455 23.9238 190.357 22.0137C191.271 20.0918 192.555 18.6211 194.207 17.6016C195.871 16.5703 197.77 16.0547 199.902 16.0547C202.035 16.0547 203.928 16.5703 205.58 17.6016C207.244 18.6211 208.527 20.0918 209.43 22.0137C210.344 23.9238 210.801 26.1328 210.801 28.6406V29.7832ZM205.457 28.623C205.457 25.9395 204.977 23.9004 204.016 22.5059C203.055 21.1113 201.684 20.4141 199.902 20.4141C198.133 20.4141 196.768 21.1055 195.807 22.4883C194.846 23.8594 194.359 25.875 194.348 28.5352V29.7832C194.348 32.3965 194.828 34.4238 195.789 35.8652C196.75 37.3066 198.133 38.0273 199.938 38.0273C201.707 38.0273 203.066 37.3359 204.016 35.9531C204.965 34.5586 205.445 32.5312 205.457 29.8711V28.623Z" fill="#031014"/>
<path d="M116.492 64.4312C116.055 65.0011 115.449 65.4328 114.674 65.7261C113.9 66.0194 113.02 66.166 112.035 66.166C111.022 66.166 110.125 65.9364 109.345 65.4771C108.565 65.0177 107.962 64.362 107.536 63.5098C107.115 62.652 106.896 61.6532 106.88 60.5132V59.5669C106.88 57.7407 107.317 56.3158 108.191 55.292C109.066 54.2627 110.286 53.748 111.852 53.748C113.197 53.748 114.265 54.0801 115.056 54.7441C115.847 55.4082 116.323 56.3656 116.484 57.6162H114.425C114.193 56.1608 113.349 55.4331 111.894 55.4331C110.953 55.4331 110.236 55.7734 109.744 56.4541C109.257 57.1292 109.005 58.1226 108.988 59.4341V60.3638C108.988 61.6698 109.262 62.6852 109.81 63.4102C110.363 64.1296 111.13 64.4893 112.109 64.4893C113.183 64.4893 113.947 64.2458 114.4 63.7588V61.3931H111.91V59.7993H116.492V64.4312ZM122.56 66.166C121.282 66.166 120.244 65.7648 119.447 64.9624C118.656 64.1545 118.26 63.0809 118.26 61.7417V61.4927C118.26 60.5962 118.432 59.7965 118.775 59.0938C119.124 58.3854 119.611 57.8348 120.236 57.4419C120.861 57.049 121.558 56.8525 122.328 56.8525C123.551 56.8525 124.494 57.2427 125.158 58.0229C125.828 58.8032 126.163 59.9072 126.163 61.335V62.1484H120.294C120.355 62.89 120.601 63.4766 121.033 63.9082C121.47 64.3398 122.018 64.5557 122.676 64.5557C123.6 64.5557 124.353 64.1821 124.934 63.4351L126.021 64.4727C125.662 65.0094 125.18 65.4272 124.577 65.7261C123.979 66.0194 123.307 66.166 122.56 66.166ZM122.319 58.4712C121.766 58.4712 121.318 58.6649 120.975 59.0522C120.637 59.4396 120.421 59.9792 120.327 60.6709H124.17V60.5215C124.126 59.8464 123.946 59.3372 123.631 58.9941C123.315 58.6455 122.878 58.4712 122.319 58.4712ZM127.358 61.4263C127.358 60.5464 127.532 59.755 127.881 59.0522C128.229 58.3439 128.719 57.8016 129.35 57.4253C129.981 57.0435 130.706 56.8525 131.525 56.8525C132.737 56.8525 133.719 57.2427 134.472 58.0229C135.23 58.8032 135.639 59.8381 135.7 61.1274L135.708 61.6006C135.708 62.486 135.537 63.2773 135.194 63.9746C134.856 64.6719 134.369 65.2114 133.733 65.5933C133.102 65.9751 132.372 66.166 131.542 66.166C130.274 66.166 129.259 65.7454 128.495 64.9043C127.737 64.0576 127.358 62.9315 127.358 61.5259V61.4263ZM129.375 61.6006C129.375 62.5247 129.566 63.2497 129.948 63.7754C130.33 64.2956 130.861 64.5557 131.542 64.5557C132.222 64.5557 132.751 64.29 133.127 63.7588C133.509 63.2275 133.7 62.45 133.7 61.4263C133.7 60.5187 133.503 59.7993 133.11 59.2681C132.723 58.7368 132.194 58.4712 131.525 58.4712C130.866 58.4712 130.343 58.734 129.956 59.2598C129.569 59.7799 129.375 60.5602 129.375 61.6006ZM147.089 63.0117L148.948 53.9141H151.032L148.243 66H146.234L143.935 57.1763L141.585 66H139.568L136.779 53.9141H138.863L140.739 62.9951L143.046 53.9141H144.806L147.089 63.0117ZM156.062 66.166C154.784 66.166 153.746 65.7648 152.949 64.9624C152.158 64.1545 151.762 63.0809 151.762 61.7417V61.4927C151.762 60.5962 151.934 59.7965 152.277 59.0938C152.625 58.3854 153.112 57.8348 153.738 57.4419C154.363 57.049 155.06 56.8525 155.83 56.8525C157.053 56.8525 157.996 57.2427 158.66 58.0229C159.33 58.8032 159.665 59.9072 159.665 61.335V62.1484H153.796C153.857 62.89 154.103 63.4766 154.535 63.9082C154.972 64.3398 155.52 64.5557 156.178 64.5557C157.102 64.5557 157.855 64.1821 158.436 63.4351L159.523 64.4727C159.164 65.0094 158.682 65.4272 158.079 65.7261C157.481 66.0194 156.809 66.166 156.062 66.166ZM155.821 58.4712C155.268 58.4712 154.82 58.6649 154.477 59.0522C154.139 59.4396 153.923 59.9792 153.829 60.6709H157.672V60.5215C157.628 59.8464 157.448 59.3372 157.133 58.9941C156.817 58.6455 156.38 58.4712 155.821 58.4712ZM169.119 61.6006C169.119 62.9951 168.806 64.1047 168.181 64.9292C167.561 65.7537 166.706 66.166 165.616 66.166C164.565 66.166 163.746 65.7869 163.159 65.0288L163.06 66H161.233V53.25H163.25V57.8818C163.832 57.1956 164.615 56.8525 165.6 56.8525C166.695 56.8525 167.556 57.2593 168.181 58.0728C168.806 58.8862 169.119 60.0234 169.119 61.4844V61.6006ZM167.102 61.4263C167.102 60.4523 166.931 59.7218 166.587 59.2349C166.244 58.7479 165.746 58.5044 165.093 58.5044C164.219 58.5044 163.605 58.8862 163.25 59.6499V63.3521C163.61 64.1323 164.23 64.5225 165.11 64.5225C165.741 64.5225 166.228 64.2873 166.571 63.8169C166.914 63.3465 167.091 62.6354 167.102 61.6836V61.4263Z" fill="#2A9D8F"/>
</svg>
