<svg width="86" height="78" viewBox="0 0 86 78" fill="none" xmlns="http://www.w3.org/2000/svg">
<path d="M42.8532 75.0109L4.20033 50.8527L42.8532 26.6946L81.506 50.8527L42.8532 75.0109Z" fill="#114B5F" stroke="#114B5F" stroke-width="4"/>
<path d="M42.8532 63.0109L4.20033 38.8527L42.8532 14.6946L81.506 38.8527L42.8532 63.0109Z" fill="#2A9D8F" stroke="#2A9D8F" stroke-width="4"/>
<path d="M81.0792 27.4264L75.1008 31.163L72.4116 32.8437L75.087 34.5463L78.6319 36.8021L66.6517 36.8022L66.0781 36.8022L65.5917 37.1062L42.4264 51.5846L3.77358 27.4264L42.4264 3.26823L81.0792 27.4264Z" fill="#031014" stroke="#031014" stroke-width="4"/>
<path d="M20.3848 29.2046L45.8406 13.2946M26.0416 32.7401L51.4975 16.8301M31.6985 36.2757L57.1543 20.3657M37.3553 39.8112L50.7904 31.4143" stroke="white" stroke-width="3"/>
</svg>
