<svg width="89" height="123" viewBox="0 0 89 123" fill="none" xmlns="http://www.w3.org/2000/svg">
<path d="M44.8532 75.0109L6.20033 50.8527L44.8532 26.6946L83.506 50.8527L44.8532 75.0109Z" fill="#114B5F" stroke="#114B5F" stroke-width="4"/>
<path d="M44.8532 63.0109L6.20033 38.8527L44.8532 14.6946L83.506 38.8527L44.8532 63.0109Z" fill="#2A9D8F" stroke="#2A9D8F" stroke-width="4"/>
<path d="M83.0792 27.4264L77.1008 31.163L74.4116 32.8437L77.087 34.5463L80.6319 36.8021L68.6517 36.8022L68.0781 36.8022L67.5917 37.1062L44.4264 51.5846L5.77358 27.4264L44.4264 3.26823L83.0792 27.4264Z" fill="#031014" stroke="#031014" stroke-width="4"/>
<path d="M22.3848 29.2046L47.8406 13.2946M28.0416 32.7401L53.4975 16.8301M33.6985 36.2757L59.1543 20.3657M39.3553 39.8112L52.7904 31.4143" stroke="white" stroke-width="3"/>
<path d="M19.4365 116H15.042L6.4873 101.967V116H2.09277V94.6719H6.4873L15.0566 108.734V94.6719H19.4365V116ZM35.5791 111.605H27.874L26.4092 116H21.7363L29.6758 94.6719H33.748L41.7314 116H37.0586L35.5791 111.605ZM29.0605 108.046H34.3926L31.7119 100.062L29.0605 108.046ZM49.4658 94.6719L54.9443 110.141L60.3936 94.6719H66.165V116H61.7559V110.17L62.1953 100.106L56.4385 116H53.4209L47.6787 100.121L48.1182 110.17V116H43.7236V94.6719H49.4658ZM87.5225 105.819C87.5225 107.919 87.1514 109.76 86.4092 111.342C85.667 112.924 84.6025 114.145 83.2158 115.004C81.8389 115.863 80.2568 116.293 78.4697 116.293C76.7021 116.293 75.125 115.868 73.7383 115.019C72.3516 114.169 71.2773 112.958 70.5156 111.386C69.7539 109.804 69.3682 107.987 69.3584 105.937V104.882C69.3584 102.782 69.7344 100.937 70.4863 99.3447C71.248 97.7432 72.3174 96.5176 73.6943 95.668C75.0811 94.8086 76.6631 94.3789 78.4404 94.3789C80.2178 94.3789 81.7949 94.8086 83.1719 95.668C84.5586 96.5176 85.6279 97.7432 86.3799 99.3447C87.1416 100.937 87.5225 102.777 87.5225 104.867V105.819ZM83.0693 104.853C83.0693 102.616 82.6689 100.917 81.8682 99.7549C81.0674 98.5928 79.9248 98.0117 78.4404 98.0117C76.9658 98.0117 75.8281 98.5879 75.0273 99.7402C74.2266 100.883 73.8213 102.562 73.8115 104.779V105.819C73.8115 107.997 74.2119 109.687 75.0127 110.888C75.8135 112.089 76.9658 112.689 78.4697 112.689C79.9443 112.689 81.0771 112.113 81.8682 110.961C82.6592 109.799 83.0596 108.109 83.0693 105.893V104.853Z" fill="#031014"/>
</svg>
