<svg width="89" height="143" viewBox="0 0 89 143" fill="none" xmlns="http://www.w3.org/2000/svg">
<path d="M44.8532 75.0109L6.20033 50.8527L44.8532 26.6946L83.506 50.8527L44.8532 75.0109Z" fill="#114B5F" stroke="#114B5F" stroke-width="4"/>
<path d="M44.8532 63.0109L6.20033 38.8527L44.8532 14.6946L83.506 38.8527L44.8532 63.0109Z" fill="#2A9D8F" stroke="#2A9D8F" stroke-width="4"/>
<path d="M83.0792 27.4264L77.1008 31.163L74.4116 32.8437L77.087 34.5463L80.6319 36.8021L68.6517 36.8022L68.0781 36.8022L67.5917 37.1062L44.4264 51.5846L5.77358 27.4264L44.4264 3.26823L83.0792 27.4264Z" fill="#031014" stroke="#031014" stroke-width="4"/>
<path d="M22.3848 29.2046L47.8406 13.2946M28.0416 32.7401L53.4975 16.8301M33.6985 36.2757L59.1543 20.3657M39.3553 39.8112L52.7904 31.4143" stroke="white" stroke-width="3"/>
<path d="M19.4365 116H15.042L6.4873 101.967V116H2.09277V94.6719H6.4873L15.0566 108.734V94.6719H19.4365V116ZM35.5791 111.605H27.874L26.4092 116H21.7363L29.6758 94.6719H33.748L41.7314 116H37.0586L35.5791 111.605ZM29.0605 108.046H34.3926L31.7119 100.062L29.0605 108.046ZM49.4658 94.6719L54.9443 110.141L60.3936 94.6719H66.165V116H61.7559V110.17L62.1953 100.106L56.4385 116H53.4209L47.6787 100.121L48.1182 110.17V116H43.7236V94.6719H49.4658ZM87.5225 105.819C87.5225 107.919 87.1514 109.76 86.4092 111.342C85.667 112.924 84.6025 114.145 83.2158 115.004C81.8389 115.863 80.2568 116.293 78.4697 116.293C76.7021 116.293 75.125 115.868 73.7383 115.019C72.3516 114.169 71.2773 112.958 70.5156 111.386C69.7539 109.804 69.3682 107.987 69.3584 105.937V104.882C69.3584 102.782 69.7344 100.937 70.4863 99.3447C71.248 97.7432 72.3174 96.5176 73.6943 95.668C75.0811 94.8086 76.6631 94.3789 78.4404 94.3789C80.2178 94.3789 81.7949 94.8086 83.1719 95.668C84.5586 96.5176 85.6279 97.7432 86.3799 99.3447C87.1416 100.937 87.5225 102.777 87.5225 104.867V105.819ZM83.0693 104.853C83.0693 102.616 82.6689 100.917 81.8682 99.7549C81.0674 98.5928 79.9248 98.0117 78.4404 98.0117C76.9658 98.0117 75.8281 98.5879 75.0273 99.7402C74.2266 100.883 73.8213 102.562 73.8115 104.779V105.819C73.8115 107.997 74.2119 109.687 75.0127 110.888C75.8135 112.089 76.9658 112.689 78.4697 112.689C79.9443 112.689 81.0771 112.113 81.8682 110.961C82.6592 109.799 83.0596 108.109 83.0693 105.893V104.853Z" fill="#031014"/>
<path d="M22.4922 137.062C22.055 137.632 21.4491 138.063 20.6743 138.357C19.8996 138.65 19.0197 138.797 18.0347 138.797C17.022 138.797 16.1255 138.567 15.3452 138.108C14.5649 137.648 13.9618 136.993 13.5356 136.14C13.1151 135.283 12.8965 134.284 12.8799 133.144V132.198C12.8799 130.371 13.3171 128.946 14.1914 127.923C15.0658 126.893 16.286 126.379 17.8521 126.379C19.1968 126.379 20.2648 126.711 21.0562 127.375C21.8475 128.039 22.3234 128.996 22.4839 130.247H20.4253C20.1929 128.791 19.349 128.064 17.8936 128.064C16.9528 128.064 16.2362 128.404 15.7437 129.085C15.2567 129.76 15.0049 130.753 14.9883 132.065V132.994C14.9883 134.3 15.2622 135.316 15.8101 136.041C16.3634 136.76 17.1299 137.12 18.1094 137.12C19.1829 137.12 19.9466 136.876 20.4004 136.389V134.024H17.9102V132.43H22.4922V137.062ZM28.5601 138.797C27.2817 138.797 26.2441 138.395 25.4473 137.593C24.6559 136.785 24.2603 135.712 24.2603 134.372V134.123C24.2603 133.227 24.4318 132.427 24.7749 131.724C25.1235 131.016 25.6105 130.465 26.2358 130.073C26.8612 129.68 27.5584 129.483 28.3276 129.483C29.5506 129.483 30.4941 129.873 31.1582 130.654C31.8278 131.434 32.1626 132.538 32.1626 133.966V134.779H26.2939C26.3548 135.521 26.6011 136.107 27.0327 136.539C27.4699 136.97 28.0177 137.186 28.6763 137.186C29.6004 137.186 30.353 136.813 30.9341 136.066L32.0215 137.103C31.6618 137.64 31.1803 138.058 30.5771 138.357C29.9795 138.65 29.3071 138.797 28.5601 138.797ZM28.3193 131.102C27.766 131.102 27.3177 131.295 26.9746 131.683C26.637 132.07 26.4212 132.61 26.3271 133.302H30.1704V133.152C30.1261 132.477 29.9463 131.968 29.6309 131.625C29.3154 131.276 28.8783 131.102 28.3193 131.102ZM33.3579 134.057C33.3579 133.177 33.5322 132.386 33.8809 131.683C34.2295 130.975 34.7192 130.432 35.3501 130.056C35.981 129.674 36.7059 129.483 37.5249 129.483C38.7368 129.483 39.7191 129.873 40.4717 130.654C41.2298 131.434 41.6393 132.469 41.7002 133.758L41.7085 134.231C41.7085 135.117 41.5369 135.908 41.1938 136.605C40.8563 137.302 40.3693 137.842 39.7329 138.224C39.1021 138.606 38.3716 138.797 37.5415 138.797C36.2743 138.797 35.2588 138.376 34.4951 137.535C33.737 136.688 33.3579 135.562 33.3579 134.156V134.057ZM35.375 134.231C35.375 135.155 35.5659 135.88 35.9478 136.406C36.3296 136.926 36.8608 137.186 37.5415 137.186C38.2222 137.186 38.7507 136.921 39.127 136.389C39.5088 135.858 39.6997 135.081 39.6997 134.057C39.6997 133.149 39.5033 132.43 39.1104 131.899C38.723 131.367 38.1945 131.102 37.5249 131.102C36.8664 131.102 36.3434 131.365 35.9561 131.89C35.5687 132.411 35.375 133.191 35.375 134.231ZM53.0889 135.642L54.9482 126.545H57.0317L54.2427 138.631H52.2339L49.9346 129.807L47.5854 138.631H45.5684L42.7793 126.545H44.8628L46.7388 135.626L49.0464 126.545H50.8062L53.0889 135.642ZM62.062 138.797C60.7837 138.797 59.7461 138.395 58.9492 137.593C58.1579 136.785 57.7622 135.712 57.7622 134.372V134.123C57.7622 133.227 57.9338 132.427 58.2769 131.724C58.6255 131.016 59.1125 130.465 59.7378 130.073C60.3631 129.68 61.0604 129.483 61.8296 129.483C63.0526 129.483 63.9961 129.873 64.6602 130.654C65.3298 131.434 65.6646 132.538 65.6646 133.966V134.779H59.7959C59.8568 135.521 60.103 136.107 60.5347 136.539C60.9718 136.97 61.5197 137.186 62.1782 137.186C63.1024 137.186 63.855 136.813 64.436 136.066L65.5234 137.103C65.1637 137.64 64.6823 138.058 64.0791 138.357C63.4814 138.65 62.8091 138.797 62.062 138.797ZM61.8213 131.102C61.2679 131.102 60.8197 131.295 60.4766 131.683C60.139 132.07 59.9232 132.61 59.8291 133.302H63.6724V133.152C63.6281 132.477 63.4482 131.968 63.1328 131.625C62.8174 131.276 62.3802 131.102 61.8213 131.102ZM75.1191 134.231C75.1191 135.626 74.8065 136.735 74.1812 137.56C73.5614 138.384 72.7064 138.797 71.6162 138.797C70.5648 138.797 69.7458 138.418 69.1592 137.659L69.0596 138.631H67.2334V125.881H69.2505V130.512C69.8315 129.826 70.6146 129.483 71.5996 129.483C72.6953 129.483 73.5558 129.89 74.1812 130.703C74.8065 131.517 75.1191 132.654 75.1191 134.115V134.231ZM73.1021 134.057C73.1021 133.083 72.9305 132.352 72.5874 131.865C72.2443 131.378 71.7463 131.135 71.0933 131.135C70.2189 131.135 69.6047 131.517 69.2505 132.281V135.983C69.6102 136.763 70.23 137.153 71.1099 137.153C71.7407 137.153 72.2277 136.918 72.5708 136.448C72.9139 135.977 73.091 135.266 73.1021 134.314V134.057Z" fill="#2A9D8F"/>
</svg>
