<?xml version="1.0" encoding="UTF-8" standalone="no"?>
<!-- Created with Inkscape (http://www.inkscape.org/) -->
<svg xmlns:dc="http://purl.org/dc/elements/1.1/" xmlns:cc="http://creativecommons.org/ns#" xmlns:rdf="http://www.w3.org/1999/02/22-rdf-syntax-ns#" xmlns:svg="http://www.w3.org/2000/svg" xmlns="http://www.w3.org/2000/svg" xmlns:sodipodi="http://sodipodi.sourceforge.net/DTD/sodipodi-0.dtd" xmlns:inkscape="http://www.inkscape.org/namespaces/inkscape" width="400" height="406" id="svg3592" sodipodi:version="0.32" inkscape:version="0.47 r22583" version="1.0" sodipodi:docname="Logo_region-guadeloupe.svg" inkscape:output_extension="org.inkscape.output.svg.inkscape" style="display:inline">
  <sodipodi:namedview id="base" pagecolor="#ffffff" bordercolor="#666666" borderopacity="1.0" inkscape:pageopacity="0.0" inkscape:pageshadow="2" inkscape:zoom="1.4142136" inkscape:cx="148.18282" inkscape:cy="214.17285" inkscape:document-units="px" inkscape:current-layer="layer1" showgrid="false" inkscape:window-width="1280" inkscape:window-height="1009" inkscape:window-x="140" inkscape:window-y="-4" inkscape:window-maximized="0"/>
  <defs id="defs3594">
    <inkscape:perspective sodipodi:type="inkscape:persp3d" inkscape:vp_x="0 : 203 : 1" inkscape:vp_y="0 : 1000 : 0" inkscape:vp_z="400 : 203 : 1" inkscape:persp3d-origin="200 : 135.33333 : 1" id="perspective26"/>
  </defs>
  <metadata id="metadata3597">
    <rdf:RDF>
      <cc:Work rdf:about="">
        <dc:format>image/svg+xml</dc:format>
        <dc:type rdf:resource="http://purl.org/dc/dcmitype/StillImage"/>
      </cc:Work>
    </rdf:RDF>
  </metadata>
  <g style="display:inline" inkscape:label="texte" id="layer10" inkscape:groupmode="layer"/>
  <g style="display:inline" inkscape:label="dessin" id="layer9" inkscape:groupmode="layer">
    <text xml:space="preserve" style="font-size:12px;font-style:normal;font-weight:normal;fill:#000000;fill-opacity:1;stroke:none;font-family:Bitstream Vera Sans" x="11.5" y="365" id="text2855" sodipodi:linespacing="125%"><tspan sodipodi:role="line" x="11.5" y="415" id="tspan2859" style="-inkscape-font-specification:'DejaVu Sans Condensed,';font-family:DejaVu Sans Condensed;font-weight:normal;font-style:normal;font-stretch:normal;font-variant:normal;font-size:40px;text-anchor:start;text-align:start;writing-mode:lr;line-height:125%"/></text>
  </g>
  <g inkscape:groupmode="layer" id="layer2" inkscape:label="Ciel" style="display:inline"/>
  <g inkscape:groupmode="layer" id="layer4" inkscape:label="Terre verte" style="display:inline"/>
  <g inkscape:groupmode="layer" id="layer3" inkscape:label="Mouette" style="display:inline"/>
  <g inkscape:groupmode="layer" id="layer1" inkscape:label="Soleil" style="display:inline">
    <g id="g2876">
      <path transform="translate(-148.57143,-49.362164)" style="display:inline;fill:#000000" d="M 261.68993,413.48954 C 257.03173,411.0956 255.40152,408.19677 254.85255,399.23579 C 253.97067,384.84056 257.69638,376.90761 265.33899,376.90761 C 269.8217,376.90761 269.67767,377.5523 272.6,379.46616 L 272.50699,384.37164 C 265.17508,378.15061 261.75135,379.94595 259.61715,386.07242 C 257.65065,391.71749 258.65175,401.36525 259.58556,405.77564 C 260.68462,410.96649 266.50931,411.67699 268.46785,410.46655 L 268.37056,399.40512 L 264.55581,399.29966 L 264.59791,395.34698 L 272.57143,395.36216 L 272.54018,412.42039 C 269.21643,414.61958 265.39956,414.98441 261.68993,413.48954 z M 410.40076,412.90783 C 410.40076,412.90783 408.26374,410.14619 407.93793,408.4951 C 407.72732,407.42782 407.5097,405.89143 407.50893,405.88952 L 407.54379,377.37628 L 411.313,377.36216 L 411.15729,403.48547 C 411.14857,404.94849 411.30763,408.02962 412.43304,409.49886 C 413.5433,410.94833 416.15754,411.28524 418.04196,409.67576 C 419.92638,408.06629 419.56675,404.12854 419.57143,403.04966 L 419.68274,377.41236 L 423.51597,377.40635 L 423.50893,405.84533 C 423.50893,405.84533 423.4642,407.28107 423.08529,408.30067 C 422.02923,411.1424 420.9296,412.40783 420.9296,412.40783 C 419.32191,414.01553 417.59574,414.87602 415.57143,414.87602 C 413.37034,414.87602 412.00845,414.51553 410.40076,412.90783 z M 306.57115,377.40173 L 310.46825,377.3588 L 317.85852,414.71657 L 313.87868,414.72783 L 311.73311,406.15984 L 304.88093,406.20519 L 303.40598,414.72655 L 299.34642,414.80178 L 306.57115,377.40173 z M 308.24605,387.82175 L 306.09988,401.39674 L 310.76945,401.45055 L 308.24605,387.82175 z M 321.57143,395.86216 L 321.57143,377.36216 L 326.34892,377.36216 C 328.97655,377.36216 332.06788,378.02159 333.21856,378.82755 C 340.53604,383.95292 341.37366,404.71378 334.53873,411.54871 C 332.19301,413.89442 330.90334,414.63816 326.67045,414.63816 L 321.59353,414.63816 L 321.57143,395.86216 z M 331.46004,408.61216 C 336.02254,404.82841 336.15131,386.86964 331.64212,383.21832 C 329.24198,381.2748 328.81207,381.67604 326.81766,381.41139 L 326.70401,410.26946 C 328.86952,410.2683 329.71901,410.15531 331.46004,408.61216 z M 365.47993,377.3759 L 369.3508,377.40635 L 369.57143,393.86216 L 369.48304,410.89249 L 379.69795,410.89249 L 379.50514,414.75948 L 365.50514,414.81494 L 365.47993,377.3759 z M 430.57143,395.86216 L 430.57143,377.36216 L 435.32143,377.36713 C 442.26969,377.43846 446.68102,379.63418 446.59471,387.84257 C 446.50809,396.08018 438.3655,397.29966 435.57615,397.29966 L 435.41372,414.27377 L 430.57143,414.36216 L 430.57143,395.86216 z M 441.95187,388.02342 C 442.41521,383.27302 439.92121,381.25773 435.579,381.42278 C 435.57387,381.73034 435.57143,392.88038 435.57143,393.21802 C 439.22029,393.63395 441.43199,391.72765 441.95187,388.02342 z M 256.57143,318.3457 L 261.32403,318.35934 C 270.41163,318.1947 271.8088,328.56689 268.71351,335.43503 L 267.04928,337.8642 L 268.64054,340.79581 C 270.10924,343.31888 273.61562,355.0559 273.61562,357.28683 L 268.812,357.18538 L 267.66183,352.34808 C 266.1142,345.13172 263.90991,340.36216 262.12246,340.36216 L 260.52724,340.28849 L 260.3392,357.36216 L 256.55755,357.32448 L 256.57143,318.3457 z M 264.37143,334.16216 C 267.00444,331.52395 267.25205,321.45499 260.53044,322.14341 L 260.5411,335.1958 C 260.5411,335.1958 263.02768,335.50591 264.37143,334.16216 z M 278.59226,357.24907 L 278.65868,318.43408 L 291.5674,318.34569 L 291.57534,322.35986 L 282.57143,322.36216 L 282.57143,335.36216 L 290.53237,335.36997 L 290.54799,339.34654 L 282.57143,339.36216 L 282.57143,353.36216 L 291.4933,353.33091 L 291.47512,357.37446 L 278.59226,357.24907 z M 323.57143,338.36216 L 323.57143,318.43408 L 328.57143,318.43408 L 328.57143,338.36216 L 328.57143,357.36216 L 323.57143,357.36216 L 323.57143,338.36216 z M 364.49958,318.2102 L 374.35823,347.02292 L 374.35631,318.26381 L 377.76922,318.2727 L 377.8078,357.23134 L 374.57805,357.25582 L 365.037,330.56543 L 365.00893,357.20122 L 361.30872,357.23226 L 361.44299,318.22252 L 364.49958,318.2102 z" id="path3703" sodipodi:nodetypes="cssccssccccccccscccszzzcccsczcccccccccccccccccssccccsccccccccccccccsccccccccccccsccssccccccccccccccccccccccccccccccccccccccc"/>
      <path style="display:inline;fill:#000000" d="M 196.90967,366.06291 L 197.03704,327.90247 L 209.58256,327.90953 L 209.59031,331.84631 L 200.79615,331.84856 L 200.79615,344.59794 L 208.57164,344.60561 L 208.58689,348.50551 L 200.79615,348.52083 L 200.79615,362.25093 L 209.51018,362.22028 L 209.49534,366.00199 L 196.90967,366.06291 z" id="path3708" sodipodi:nodetypes="ccccccccccccc"/>
      <path style="display:inline;fill:#000000" d="M 303.39801,364.92383 L 303.46443,327.59649 L 316.37315,327.57793 L 316.38109,331.43139 L 307.37718,331.4336 L 307.37718,343.91315 L 315.33812,343.92064 L 315.35374,347.73801 L 307.37718,347.75301 L 307.37718,361.19252 L 316.29905,361.16253 L 316.30297,364.88952 L 303.39801,364.92383 z" id="path3712" sodipodi:nodetypes="ccccccccccccc"/>
      <path style="display:inline;fill:#000000" d="M 156.11258,306.87948 C 151.45438,304.4125 149.82417,301.42523 149.2752,292.19084 C 148.39332,277.3564 152.11903,269.1814 159.76164,269.1814 C 164.24435,269.1814 164.10032,269.57926 167.02265,271.81801 L 167.01803,277.09413 C 161.23291,271.4346 157.07588,272.24837 154.1023,278.19025 C 151.73805,282.91453 151.81124,293.49657 154.17426,299.72066 C 155.50765,303.23276 160.93196,305.01164 162.8905,303.76426 L 162.79321,292.36534 L 158.97846,292.25665 L 159.02056,288.18338 L 166.99408,288.19902 L 166.96283,305.77771 C 163.65222,308.03508 159.8305,308.42341 156.11258,306.87948 z" id="path3710" sodipodi:nodetypes="cssccssccccccc"/>
      <path sodipodi:type="arc" style="display:inline;opacity:1;fill:#000000;fill-opacity:1;stroke:none;stroke-opacity:1" id="path3717" sodipodi:cx="243.5625" sodipodi:cy="346.5625" sodipodi:rx="10.0625" sodipodi:ry="19.4375" d="m 253.625,346.5625 c 0,10.73503 -4.50513,19.4375 -10.0625,19.4375 -5.55737,0 -10.0625,-8.70247 -10.0625,-19.4375 0,-10.73503 4.50513,-19.4375 10.0625,-19.4375 5.55737,0 10.0625,8.70247 10.0625,19.4375 z"/>
      <path sodipodi:type="arc" style="display:inline;opacity:1;fill:#ffffff;fill-opacity:1;stroke:none;stroke-opacity:1" id="path4228" sodipodi:cx="243.625" sodipodi:cy="346.875" sodipodi:rx="4.75" sodipodi:ry="15.75" d="m 248.375,346.875 c 0,8.69848 -2.12665,15.75 -4.75,15.75 -2.62335,0 -4.75,-7.05152 -4.75,-15.75 0,-8.69848 2.12665,-15.75 4.75,-15.75 2.62335,0 4.75,7.05152 4.75,15.75 z" transform="matrix(1.1973684,0,0,0.9880952,-48.263797,3.5000223)"/>
      <path sodipodi:type="arc" style="display:inline;opacity:1;fill:#000000;fill-opacity:1;stroke:none;stroke-opacity:1" id="path4232" sodipodi:cx="243.5625" sodipodi:cy="346.5625" sodipodi:rx="10.0625" sodipodi:ry="19.4375" d="m 253.625,346.5625 c 0,10.73503 -4.50513,19.4375 -10.0625,19.4375 -5.55737,0 -10.0625,-8.70247 -10.0625,-19.4375 0,-10.73503 4.50513,-19.4375 10.0625,-19.4375 5.55737,0 10.0625,8.70247 10.0625,19.4375 z" transform="matrix(1.0186335,0,0,1.0186335,-52.038433,-64.332686)"/>
      <path sodipodi:type="arc" style="display:inline;opacity:1;fill:#ffffff;fill-opacity:1;stroke:none;stroke-opacity:1" id="path4234" sodipodi:cx="243.625" sodipodi:cy="346.875" sodipodi:rx="4.75" sodipodi:ry="15.75" d="m 248.375,346.875 c 0,8.69848 -2.12665,15.75 -4.75,15.75 -2.62335,0 -4.75,-7.05152 -4.75,-15.75 0,-8.69848 2.12665,-15.75 4.75,-15.75 2.62335,0 4.75,7.05152 4.75,15.75 z" transform="matrix(1.2196796,0,0,1.0065069,-101.24822,-60.361465)"/>
      <path style="display:inline;fill:#000000" d="M 133.16664,363.43481 C 133.16664,363.43481 131.02962,360.62898 130.70381,358.97789 C 130.4932,357.91061 130.27558,356.37422 130.27481,356.37231 L 130.30967,327.85907 L 134.07888,327.88914 L 133.92317,354.01245 C 133.91445,355.47547 134.07351,358.5566 135.19892,360.02584 C 136.30918,361.47531 138.92342,361.81222 140.80784,360.20274 C 142.69226,358.59327 142.33263,354.65552 142.33731,353.57664 L 142.44862,327.93934 L 146.28185,327.93333 L 146.27481,356.37231 C 146.27481,356.37231 146.23008,357.80805 145.85117,358.82765 C 144.79511,361.66938 143.69548,362.93481 143.69548,362.93481 C 142.08779,364.54251 140.36162,365.403 138.33731,365.403 C 136.13622,365.403 134.77433,365.04251 133.16664,363.43481 z" id="path4236" sodipodi:nodetypes="cscccszzzcccsczc"/>
      <path style="display:inline;fill:#f9d80a" d="M 107.21107,383.25 107.5,374.5 211.94535,374.24535 c 67.75521,-0.1652 104.7922,0.0922 105.43275,0.73275 0.80848,0.80848 1.02949,6.02471 0.66823,15.7719 -0.0368,0.99181 -21.84549,1.25 -105.58526,1.25 l -105.53894,0 0.28894,-8.75 z" id="path2836"/>
      <path sodipodi:nodetypes="ccscccssscc" id="path3682" d="m 185.54473,117.5 c -6.7567,-4.73938 -12.36447,-8.61282 -19.16355,-11.40168 -17.17714,-6.807044 -34.34027,-7.020514 -51.26726,-0.63764 -5.16234,1.94662 -10.1611,4.8176 -10.12036,5.00514 l 0.006,-58.465824 77,0 c 49.60173,0 77,0.34859 77,0.97968 0,0.53882 -1.6875,1.84142 -3.75,2.89465 -16.49264,8.42215 -42.2871,35.52539 -58.18732,60.375674 -1.97953,3.09378 -5.18858,8.03868 -5.19279,8.04268 -0.95385,-0.7734 -3.12621,-3.76768 -6.32516,-6.79268 z" style="display:inline;fill:#0baad6"/>
      <path sodipodi:nodetypes="ccccscccssssssssc" id="path3678" d="M 106.5771,247.24377 C 106.2597,246.92636 106,241.58957 106,235.38422 l 0,-11.28244 3.25,-2.46493 c 3.61448,-2.74138 22.95945,-12.8208 32.25,-16.80341 9.4876,-4.06707 22.0821,-7.89186 33.97597,-10.31806 l 10.97598,-2.23895 2.77402,-5.36842 c 1.52572,-2.95263 2.7768,-5.82733 2.78019,-6.38822 0.006,-1.03589 0.36685,-1.77339 5.63256,-11.51979 2.94397,-5.44905 4.4732,-7.93973 13.2006,-21.5 5.06509,-7.86992 14.81306,-19.74407 24.30375,-29.60477 9.22525,-9.58491 32.07332,-27.580214 41.35693,-32.573024 11.4148,-6.13897 23.96841,-12.32221 25.01736,-12.32221 0.87599,0 1.3558,7.93047 1.83017,30.250004 2.58625,121.68509 2.87793,141.91794 2.05685,142.674 -1.00666,0.92693 -197.9131,2.23395 -198.82728,1.31977 z" style="display:inline;fill:#018756"/>
      <path sodipodi:nodetypes="cssssssssssccccssssssc" id="path3680" d="M 21,275.51925 C 21,274.61948 32.06753,259.85872 37.13501,254 46.63179,243.02036 58.6924,231.21065 67.5,224.26667 c 4.95,-3.90262 9.9641,-7.96904 11.14246,-9.03649 5.76066,-5.21854 12.45901,-9.2113 27.85754,-16.60539 19.1331,-9.18735 36.99827,-14.31249 56,-16.06521 7.02205,-0.64771 6.30182,-0.31351 -10.68814,4.95947 -12.49764,3.87876 -37.83929,15.82562 -51.63527,24.34252 C 95.59872,214.68771 91.6298,217 91.35677,217 c -0.81299,0 -9.13979,5.81689 -20.8965,14.59775 C 56.30186,242.1724 44.11389,252.7841 31.25,265.73694 25.6125,271.41343 21,275.81547 21,275.51925 z M 185,163.37398 c 0,-0.3443 1.63309,-4.7318 3.62909,-9.75 10.09186,-23.41133 25.55589,-44.78197 43.18579,-63.123984 18.15681,-18.16678 31.70208,-27.77577 56.18512,-39.85761 23.78954,-11.739611 41.868,-17.54511 65.74342,-21.112043 9.75663,-1.457618 18.40481,-1.95979 13.75658,-0.7988 -4.50716,1.125755 -34.42715,11.264183 -40,13.554051 C 282.12124,60.931606 255.82532,77.913366 224,109.12532 212.16771,120.72958 194.33282,145.49226 188.25871,158.75 186.06927,163.52881 185,165.04606 185,163.37398 z" style="display:inline;fill:#155089"/>
      <path style="fill:#f9d80a;display:inline" d="m 80.40693,213.58647 c -2.60377,-2.83756 -6.97254,-12.04677 -9.47901,-19.61609 -5.41645,-16.35719 -3.81954,-37.0495 4.04398,-52.40075 5.49927,-10.73573 15.74666,-22.14755 25.24159,-28.10983 l 4.77599,-2.99886 c 8.64453,-7.80078 57.10652,-24.285514 86.85652,13.83949 l 1.9364,2.61912 c 1.06503,1.44053 2.15963,3.65739 2.64439,4.84979 0.49876,1.22686 1.08398,2.59003 1.32477,3.32441 -3.91023,11.23957 -15.33616,33.54806 -20.52655,45.92361 -33.56731,4.37107 -55.63801,15.36055 -96.81808,32.56911 z" id="path2834"/>
    </g>
  </g>
<script xmlns=""/></svg>